<svg width="33" height="33" viewBox="0 0 33 33" fill="none" xmlns="http://www.w3.org/2000/svg">
<g clip-path="url(#clip0_930_3631)">
<path d="M27.7373 6.59262C25.6633 5.64392 23.476 4.96578 21.2291 4.57487C21.2083 4.57222 21.1871 4.57546 21.168 4.58421C21.1489 4.59297 21.1326 4.6069 21.121 4.62442C20.8418 5.12435 20.531 5.77742 20.3103 6.29086C17.8877 5.92156 15.4231 5.92156 13.0005 6.29086C12.7582 5.72069 12.4845 5.16436 12.1808 4.62442C12.1692 4.6069 12.1529 4.59297 12.1338 4.58421C12.1147 4.57546 12.0935 4.57222 12.0727 4.57487C9.8258 4.96578 7.63849 5.64392 5.56454 6.59262C5.54698 6.60136 5.53274 6.61559 5.52401 6.63316C1.37591 12.826 0.240928 18.8658 0.799413 24.8335C0.800582 24.8477 0.804808 24.8615 0.811804 24.8739C0.8188 24.8863 0.828399 24.8971 0.839946 24.9055C3.25327 26.6987 5.95341 28.0693 8.82537 28.959C8.84605 28.9635 8.86759 28.9621 8.88751 28.955C8.90742 28.9478 8.92491 28.9352 8.93797 28.9185C9.55394 28.0793 10.0993 27.1905 10.5684 26.2612C10.5759 26.2488 10.5804 26.2349 10.5817 26.2205C10.5829 26.2061 10.5809 26.1916 10.5757 26.1781C10.5704 26.1646 10.5622 26.1525 10.5516 26.1427C10.5409 26.1329 10.5282 26.1257 10.5143 26.1216C9.65192 25.7931 8.81748 25.3955 8.01918 24.9325C8.00524 24.923 7.99384 24.9103 7.98596 24.8954C7.97808 24.8804 7.97396 24.8638 7.97396 24.847C7.97396 24.8301 7.97808 24.8135 7.98596 24.7986C7.99384 24.7837 8.00524 24.7709 8.01918 24.7614C8.18582 24.6398 8.35696 24.5092 8.5146 24.3741C8.53049 24.3654 8.5483 24.3608 8.5664 24.3608C8.5845 24.3608 8.6023 24.3654 8.61819 24.3741C11.1325 25.5538 13.8758 26.1653 16.6532 26.1653C19.4305 26.1653 22.1738 25.5538 24.6881 24.3741C24.7039 24.365 24.7217 24.3602 24.7399 24.3602C24.7581 24.3602 24.776 24.365 24.7917 24.3741C24.9539 24.5047 25.1205 24.6398 25.2917 24.7614C25.3056 24.7709 25.317 24.7837 25.3249 24.7986C25.3327 24.8135 25.3369 24.8301 25.3369 24.847C25.3369 24.8638 25.3327 24.8804 25.3249 24.8954C25.317 24.9103 25.3056 24.923 25.2917 24.9325C24.4952 25.399 23.6605 25.7968 22.7965 26.1216C22.7826 26.1257 22.7699 26.1329 22.7593 26.1427C22.7486 26.1525 22.7404 26.1646 22.7352 26.1781C22.73 26.1916 22.7279 26.2061 22.7292 26.2205C22.7304 26.2349 22.735 26.2488 22.7424 26.2612C23.2183 27.1867 23.7633 28.075 24.3729 28.9185C24.3859 28.9352 24.4034 28.9478 24.4233 28.955C24.4432 28.9621 24.4648 28.9635 24.4855 28.959C27.3621 28.0708 30.067 26.7001 32.4844 24.9055C32.5069 24.8878 32.5215 24.8619 32.5249 24.8335C33.1894 18.3969 31.5033 11.9373 27.7778 6.64667C27.7718 6.62408 27.7573 6.6047 27.7373 6.59262ZM11.3521 21.1988C9.7757 21.1988 8.47857 19.753 8.47857 17.9785C8.47857 16.204 9.75318 14.7537 11.3521 14.7537C12.951 14.7537 14.2526 16.213 14.2256 17.9785C14.1985 19.744 12.951 21.1988 11.3521 21.1988ZM21.9768 21.1988C20.4004 21.1988 19.1033 19.753 19.1033 17.9785C19.1033 16.204 20.3599 14.7537 21.9768 14.7537C23.5937 14.7537 24.8773 16.213 24.8503 17.9785C24.8232 19.744 23.5892 21.1988 21.9768 21.1988Z" fill="white"/>
</g>
<defs>
<clipPath id="clip0_930_3631">
<rect width="32" height="32" fill="white" transform="translate(0.666687 0.573975)"/>
</clipPath>
</defs>
</svg>
