<svg width="33" height="33" viewBox="0 0 33 33" fill="none" xmlns="http://www.w3.org/2000/svg">
<path d="M16.6667 1.57397C12.5961 1.57397 12.0842 1.59272 10.4848 1.66397C8.88544 1.73897 7.79606 1.99022 6.84169 2.36147C5.84061 2.73801 4.93386 3.32865 4.18481 4.0921C3.42183 4.84153 2.83126 5.74817 2.45419 6.74897C2.08294 7.70147 1.82981 8.79272 1.75669 10.3865C1.68544 11.9896 1.66669 12.4996 1.66669 16.5759C1.66669 20.6483 1.68544 21.1583 1.75669 22.7577C1.83169 24.3552 2.08294 25.4446 2.45419 26.399C2.83856 27.3852 3.35044 28.2215 4.18481 29.0558C5.01731 29.8902 5.85356 30.404 6.83981 30.7865C7.79606 31.1577 8.88356 31.4108 10.4811 31.484C12.0823 31.5552 12.5923 31.574 16.6667 31.574C20.7411 31.574 21.2492 31.5552 22.8504 31.484C24.4461 31.409 25.5392 31.1577 26.4936 30.7865C27.494 30.4098 28.4001 29.8191 29.1486 29.0558C29.9829 28.2215 30.4948 27.3852 30.8792 26.399C31.2486 25.4446 31.5017 24.3552 31.5767 22.7577C31.6479 21.1583 31.6667 20.6483 31.6667 16.574C31.6667 12.4996 31.6479 11.9896 31.5767 10.3883C31.5017 8.79273 31.2486 7.70147 30.8792 6.74897C30.5022 5.74815 29.9116 4.84149 29.1486 4.0921C28.3997 3.32837 27.4929 2.73768 26.4917 2.36147C25.5354 1.99022 24.4442 1.7371 22.8486 1.66397C21.2473 1.59272 20.7392 1.57397 16.6629 1.57397H16.6686H16.6667ZM15.3223 4.27772H16.6686C20.6736 4.27772 21.1479 4.29085 22.7286 4.36397C24.1911 4.4296 24.9861 4.67522 25.5148 4.8796C26.2142 5.15147 26.7148 5.47772 27.2398 6.00272C27.7648 6.52772 28.0892 7.02647 28.3611 7.72772C28.5673 8.2546 28.8111 9.0496 28.8767 10.5121C28.9498 12.0927 28.9648 12.5671 28.9648 16.5702C28.9648 20.5733 28.9498 21.0496 28.8767 22.6302C28.8111 24.0927 28.5654 24.8858 28.3611 25.4146C28.1206 26.0659 27.7367 26.6548 27.2379 27.1377C26.7129 27.6627 26.2142 27.9871 25.5129 28.259C24.9879 28.4652 24.1929 28.709 22.7286 28.7765C21.1479 28.8477 20.6736 28.8646 16.6686 28.8646C12.6636 28.8646 12.1873 28.8477 10.6067 28.7765C9.14419 28.709 8.35106 28.4652 7.82231 28.259C7.17075 28.0188 6.5813 27.6357 6.09731 27.1377C5.59809 26.654 5.21367 26.0646 4.97231 25.4127C4.76794 24.8858 4.52231 24.0908 4.45669 22.6283C4.38544 21.0477 4.37044 20.5733 4.37044 16.5665C4.37044 12.5615 4.38544 12.089 4.45669 10.5083C4.52419 9.04585 4.76794 8.25085 4.97419 7.7221C5.24606 7.02272 5.57231 6.5221 6.09731 5.9971C6.62231 5.4721 7.12106 5.14772 7.82231 4.87585C8.35106 4.6696 9.14419 4.42585 10.6067 4.35835C11.9904 4.2946 12.5267 4.27585 15.3223 4.27397V4.27772ZM24.6748 6.76772C24.4384 6.76772 24.2044 6.81428 23.986 6.90474C23.7676 6.9952 23.5692 7.12779 23.402 7.29493C23.2349 7.46208 23.1023 7.66051 23.0118 7.87889C22.9214 8.09728 22.8748 8.33135 22.8748 8.56772C22.8748 8.8041 22.9214 9.03817 23.0118 9.25655C23.1023 9.47494 23.2349 9.67337 23.402 9.84052C23.5692 10.0077 23.7676 10.1402 23.986 10.2307C24.2044 10.3212 24.4384 10.3677 24.6748 10.3677C25.1522 10.3677 25.61 10.1781 25.9476 9.84052C26.2852 9.50295 26.4748 9.04511 26.4748 8.56772C26.4748 8.09033 26.2852 7.6325 25.9476 7.29493C25.61 6.95737 25.1522 6.76772 24.6748 6.76772ZM16.6686 8.87147C15.6468 8.85553 14.6321 9.04301 13.6835 9.42299C12.7349 9.80297 11.8714 10.3679 11.1432 11.0848C10.415 11.8017 9.83674 12.6563 9.44201 13.5988C9.04728 14.5414 8.844 15.553 8.844 16.5749C8.844 17.5968 9.04728 18.6084 9.44201 19.551C9.83674 20.4935 10.415 21.3481 11.1432 22.0651C11.8714 22.782 12.7349 23.3469 13.6835 23.7268C14.6321 24.1068 15.6468 24.2943 16.6686 24.2784C18.6908 24.2468 20.6196 23.4213 22.0385 21.9801C23.4575 20.5388 24.2528 18.5974 24.2528 16.5749C24.2528 14.5524 23.4575 12.611 22.0385 11.1698C20.6196 9.72851 18.6908 8.90303 16.6686 8.87147ZM16.6686 11.5733C17.9948 11.5733 19.2667 12.1002 20.2045 13.038C21.1423 13.9758 21.6692 15.2477 21.6692 16.574C21.6692 17.9002 21.1423 19.1722 20.2045 20.11C19.2667 21.0477 17.9948 21.5746 16.6686 21.5746C15.3423 21.5746 14.0704 21.0477 13.1326 20.11C12.1948 19.1722 11.6679 17.9002 11.6679 16.574C11.6679 15.2477 12.1948 13.9758 13.1326 13.038C14.0704 12.1002 15.3423 11.5733 16.6686 11.5733Z" fill="white"/>
</svg>
