<svg width="124" height="38" viewBox="0 0 124 38" fill="none" xmlns="http://www.w3.org/2000/svg">
<g clip-path="url(#clip0_754_3986)">
<path d="M19.2223 11.5803C23.7464 13.4143 23.4783 17.1545 23.4783 17.1545C21.1992 17.5795 19.0839 16.8654 18.2689 16.5339C17.9027 16.3792 17.5108 16.2942 17.1134 16.2832C15.8366 16.2619 15.2684 16.9207 15.2684 16.9207C13.1659 19.2137 16.3963 21.7787 16.3963 21.7787C16.3963 21.7787 18.6541 23.7996 24.8786 26.83C27.5304 28.0941 30.101 29.5213 32.5756 31.1036C35.4333 27.8086 37.0288 23.6086 37.0785 19.2498C37.2168 9.23424 29.2048 0.852869 19.1776 0.510729C16.7341 0.428566 14.2986 0.829945 12.0111 1.69175C9.72368 2.55356 7.62957 3.85877 5.84939 5.5322C4.06921 7.20563 2.63814 9.21423 1.63859 11.4423C0.639047 13.6704 0.0907755 16.0739 0.0253558 18.5145C-0.238519 28.2368 7.20744 36.5927 16.9091 37.447C17.1623 37.4682 17.4156 37.4852 17.6646 37.498C18.081 37.5169 18.4933 37.4093 18.8472 37.1893C19.201 36.9693 19.4797 36.6472 19.6464 36.2657C19.8131 35.8842 19.86 35.4611 19.7808 35.0524C19.7017 34.6437 19.5002 34.2686 19.2031 33.9767C16.5644 31.4138 12.7084 28.7723 12.7084 28.7723C12.7084 28.7723 4.49846 22.9432 5.54758 15.329C6.5967 7.7148 13.3894 6.66287 13.3894 6.66287C13.3894 6.66287 18.254 5.38782 23.623 7.93793C28.992 10.488 28.0195 14.0008 28.0195 14.0008C24.9424 11.6526 20.2969 11.268 19.2946 11.2106C19.2696 11.2094 19.2445 11.2133 19.221 11.2219C19.1974 11.2305 19.1758 11.2436 19.1574 11.2606C19.139 11.2776 19.1242 11.2981 19.1137 11.3209C19.1033 11.3437 19.0975 11.3683 19.0967 11.3933C19.0945 11.4339 19.1055 11.4741 19.1282 11.5078C19.1508 11.5416 19.1838 11.567 19.2223 11.5803V11.5803ZM33.3928 21.8127C33.3672 21.9263 33.3137 22.0318 33.2372 22.1197C33.1607 22.2076 33.0635 22.2752 32.9544 22.3163L32.7863 22.3779C32.6908 22.414 32.5885 22.4287 32.4866 22.421C32.3847 22.4133 32.2858 22.3834 32.1968 22.3333C30.8967 21.6195 29.65 20.8127 28.4664 19.9192C26.8172 18.6144 23.9656 17.2437 23.9656 17.2437C23.9656 17.2437 23.9316 14.4641 28.0536 14.7744C28.0536 14.7744 28.0876 16.4192 30.3199 18.3743L33.1949 21.1539C33.2816 21.2376 33.3453 21.3421 33.38 21.4575C33.4146 21.5728 33.419 21.6951 33.3928 21.8127V21.8127Z" fill="#2979FF"/>
<path d="M42.2812 25.9649L43.7475 23.5933C44.0044 23.1833 44.4055 22.8839 44.8721 22.7542C45.3387 22.6244 45.837 22.6736 46.2692 22.892C47.9482 23.7208 49.6612 24.1416 51.1338 24.1416C52.2702 24.1416 52.7873 23.7973 52.7873 23.1428V23.0748C52.7873 22.3522 51.7531 22.0441 49.7911 21.4937C46.1053 20.531 43.1772 19.2921 43.1772 15.5434V15.4733C43.1772 11.5185 46.3458 9.31055 50.6508 9.31055C53.3725 9.31055 56.1964 10.1032 58.3308 11.4781L56.937 14.0495C56.7154 14.4546 56.3507 14.7626 55.9139 14.9135C55.4771 15.0644 54.9997 15.0473 54.5749 14.8655C53.1193 14.245 51.6807 13.8859 50.5827 13.8859C49.5846 13.8859 49.0675 14.2641 49.0675 14.7805V14.8485C49.0675 15.5711 50.1315 15.9111 52.0978 16.4997C55.7836 17.5304 58.716 18.8055 58.716 22.4181V22.4861C58.716 26.5791 55.6516 28.7105 51.1062 28.7105C47.9489 28.7427 44.8615 27.7822 42.2812 25.9649Z" fill="#2979FF"/>
<path d="M58.7373 9.69523H64.8873L67.2281 19.0456L69.9711 9.62085H75.1593L77.9257 19.1136L79.6686 12.3133C79.8436 11.5755 80.2606 10.9173 80.8532 10.4434C81.4458 9.96936 82.1801 9.70679 82.9393 9.69736H86.3846L80.8666 28.4428H75.4572L72.5482 18.7757L69.5689 28.4407H66.1875C65.6007 28.4329 65.0323 28.2353 64.5676 27.8774C64.1029 27.5195 63.767 27.0206 63.6105 26.4558L58.7373 9.69523Z" fill="#2979FF"/>
<path d="M85.6016 22.9729V22.9027C85.6016 19.0521 88.5276 17.0566 92.9028 17.0566C94.4214 17.0589 95.9299 17.3028 97.3717 17.7791V17.4689C97.3717 15.5435 96.1651 14.4427 93.6519 14.4427C92.4149 14.4352 91.1836 14.6106 89.9981 14.9634C89.8051 15.0229 89.6023 15.0436 89.4013 15.0244C89.2003 15.0051 89.0051 14.9463 88.827 14.8512C88.6489 14.7562 88.4914 14.6268 88.3637 14.4706C88.236 14.3144 88.1405 14.1345 88.0828 13.9412L87.1869 10.8662C89.2873 10.0055 91.5281 9.42114 94.7308 9.42114C98.0697 9.42114 100.345 10.2117 101.823 11.6907C103.234 13.0678 103.83 14.9931 103.83 17.607V28.3026H99.2741C98.7628 28.3026 98.2724 28.0997 97.9108 27.7387C97.5493 27.3776 97.3461 26.8879 97.3461 26.3773C96.0693 27.7862 94.3137 28.7149 91.8686 28.7149C88.3212 28.7149 85.6016 26.6854 85.6016 22.9729ZM97.4461 21.5682V20.9306C96.6338 20.6079 95.7668 20.4442 94.8925 20.4483C92.9964 20.4483 91.8941 21.1517 91.8941 22.5266V22.5946C91.8941 23.8696 92.8603 24.6241 94.203 24.6241C96.1055 24.6219 97.4461 23.4191 97.4461 21.5682Z" fill="#2979FF"/>
<path d="M112.083 28.3026V18.2254C112.083 16.1959 113.253 15.0952 114.837 15.0952C116.388 15.0952 117.454 16.1959 117.454 18.2254V25.9926C117.454 26.6053 117.698 27.1928 118.132 27.626C118.565 28.0592 119.154 28.3026 119.767 28.3026H123.998V16.1279C123.998 11.8969 121.623 9.28302 117.661 9.28302C115.009 9.28302 113.287 10.7706 112.083 12.3092V11.2105C112.083 10.8086 111.923 10.4232 111.639 10.1391C111.354 9.85492 110.968 9.69529 110.566 9.69529H105.533V28.3026H112.083Z" fill="#2979FF"/>
</g>
<defs>
<clipPath id="clip0_754_3986">
<rect width="124" height="37" fill="white" transform="translate(0 0.5)"/>
</clipPath>
</defs>
</svg>
