<svg width="38" height="38" viewBox="0 0 38 38" fill="none" xmlns="http://www.w3.org/2000/svg">
<path d="M19.2223 11.5803C23.7464 13.4143 23.4783 17.1545 23.4783 17.1545C21.1992 17.5795 19.0839 16.8654 18.2689 16.5339C17.9027 16.3792 17.5108 16.2942 17.1134 16.2832C15.8366 16.2619 15.2684 16.9207 15.2684 16.9207C13.1659 19.2137 16.3963 21.7787 16.3963 21.7787C16.3963 21.7787 18.6541 23.7996 24.8786 26.83C27.5304 28.0941 30.101 29.5213 32.5756 31.1036C35.4333 27.8086 37.0288 23.6086 37.0785 19.2498C37.2168 9.23424 29.2048 0.852869 19.1776 0.510729C16.7341 0.428566 14.2986 0.829945 12.0111 1.69175C9.72368 2.55356 7.62957 3.85877 5.84939 5.5322C4.06921 7.20563 2.63814 9.21423 1.63859 11.4423C0.639047 13.6704 0.0907755 16.0739 0.0253558 18.5145C-0.238519 28.2368 7.20744 36.5927 16.9091 37.447C17.1623 37.4682 17.4156 37.4852 17.6646 37.498C18.081 37.5169 18.4933 37.4093 18.8472 37.1893C19.201 36.9693 19.4797 36.6472 19.6464 36.2657C19.8131 35.8842 19.86 35.4611 19.7808 35.0524C19.7017 34.6437 19.5002 34.2686 19.2031 33.9767C16.5644 31.4138 12.7084 28.7723 12.7084 28.7723C12.7084 28.7723 4.49846 22.9432 5.54758 15.329C6.5967 7.7148 13.3894 6.66287 13.3894 6.66287C13.3894 6.66287 18.254 5.38782 23.623 7.93793C28.992 10.488 28.0195 14.0008 28.0195 14.0008C24.9424 11.6526 20.2969 11.268 19.2946 11.2106C19.2696 11.2094 19.2445 11.2133 19.221 11.2219C19.1974 11.2305 19.1758 11.2436 19.1574 11.2606C19.139 11.2776 19.1242 11.2981 19.1137 11.3209C19.1033 11.3437 19.0975 11.3683 19.0967 11.3933C19.0945 11.4339 19.1055 11.4741 19.1282 11.5078C19.1508 11.5416 19.1838 11.567 19.2223 11.5803ZM33.3928 21.8127C33.3672 21.9263 33.3137 22.0318 33.2372 22.1197C33.1607 22.2076 33.0635 22.2752 32.9544 22.3163L32.7863 22.3779C32.6908 22.414 32.5885 22.4287 32.4866 22.421C32.3848 22.4133 32.2858 22.3834 32.1968 22.3333C30.8967 21.6195 29.65 20.8127 28.4664 19.9192C26.8172 18.6144 23.9656 17.2437 23.9656 17.2437C23.9656 17.2437 23.9316 14.4641 28.0536 14.7744C28.0536 14.7744 28.0876 16.4192 30.3199 18.3743L33.1949 21.1539C33.2816 21.2376 33.3453 21.3421 33.38 21.4575C33.4146 21.5728 33.419 21.6951 33.3928 21.8127Z" fill="#2979FF"/>
</svg>
