<svg width="124" height="38" viewBox="0 0 124 38" fill="none" xmlns="http://www.w3.org/2000/svg">
<g clip-path="url(#clip0_930_3573)">
<path d="M19.2223 11.1543C23.7464 12.9883 23.4783 16.7284 23.4783 16.7284C21.1992 17.1535 19.0839 16.4394 18.2689 16.1079C17.9027 15.9532 17.5108 15.8681 17.1134 15.8571C15.8366 15.8359 15.2684 16.4947 15.2684 16.4947C13.1659 18.7877 16.3963 21.3526 16.3963 21.3526C16.3963 21.3526 18.6541 23.3736 24.8786 26.404C27.5304 27.668 30.101 29.0953 32.5756 30.6775C35.4333 27.3825 37.0288 23.1825 37.0785 18.8238C37.2168 8.80821 29.2048 0.426844 19.1776 0.0847037C16.7341 0.0025411 14.2986 0.40392 12.0111 1.26573C9.72368 2.12753 7.62957 3.43274 5.84939 5.10617C4.06921 6.77961 2.63814 8.78821 1.63859 11.0163C0.639047 13.2444 0.0907755 15.6479 0.0253558 18.0885C-0.238519 27.8108 7.20744 36.1667 16.9091 37.021C17.1623 37.0422 17.4156 37.0592 17.6646 37.0719C18.081 37.0909 18.4933 36.9833 18.8472 36.7632C19.201 36.5432 19.4797 36.2212 19.6464 35.8397C19.8131 35.4581 19.86 35.0351 19.7808 34.6264C19.7017 34.2177 19.5002 33.8426 19.2031 33.5507C16.5644 30.9878 12.7084 28.3463 12.7084 28.3463C12.7084 28.3463 4.49846 22.5172 5.54758 14.903C6.5967 7.28877 13.3894 6.23685 13.3894 6.23685C13.3894 6.23685 18.254 4.96179 23.623 7.5119C28.992 10.062 28.0195 13.5748 28.0195 13.5748C24.9424 11.2266 20.2969 10.8419 19.2946 10.7845C19.2696 10.7834 19.2445 10.7873 19.221 10.7958C19.1974 10.8044 19.1758 10.8176 19.1574 10.8346C19.139 10.8516 19.1242 10.8721 19.1137 10.8949C19.1033 10.9177 19.0975 10.9423 19.0967 10.9673C19.0945 11.0079 19.1055 11.0481 19.1282 11.0818C19.1508 11.1155 19.1838 11.141 19.2223 11.1543ZM33.3928 21.3866C33.3672 21.5003 33.3137 21.6058 33.2372 21.6937C33.1607 21.7816 33.0635 21.8491 32.9544 21.8903L32.7863 21.9519C32.6908 21.988 32.5885 22.0027 32.4866 21.995C32.3848 21.9873 32.2858 21.9573 32.1968 21.9073C30.8967 21.1935 29.65 20.3866 28.4664 19.4932C26.8172 18.1884 23.9656 16.8177 23.9656 16.8177C23.9656 16.8177 23.9316 14.0381 28.0536 14.3483C28.0536 14.3483 28.0876 15.9932 30.3199 17.9482L33.1949 20.7279C33.2816 20.8116 33.3453 20.9161 33.38 21.0314C33.4146 21.1468 33.419 21.2691 33.3928 21.3866Z" fill="white"/>
<path d="M42.2812 25.5389L43.7475 23.1673C44.0044 22.7572 44.4055 22.4579 44.8721 22.3282C45.3387 22.1984 45.837 22.2476 46.2692 22.466C47.9482 23.2948 49.6612 23.7155 51.1338 23.7155C52.2702 23.7155 52.7873 23.3713 52.7873 22.7168V22.6487C52.7873 21.9262 51.7531 21.6181 49.7911 21.0677C46.1053 20.105 43.1772 18.8661 43.1772 15.1174V15.0473C43.1772 11.0925 46.3458 8.88452 50.6508 8.88452C53.3725 8.88452 56.1964 9.67718 58.3308 11.0521L56.937 13.6235C56.7154 14.0285 56.3507 14.3366 55.9139 14.4875C55.4771 14.6384 54.9997 14.6213 54.5749 14.4395C53.1193 13.819 51.6807 13.4598 50.5827 13.4598C49.5846 13.4598 49.0675 13.8381 49.0675 14.3545V14.4225C49.0675 15.145 50.1315 15.4851 52.0978 16.0737C55.7836 17.1044 58.716 18.3794 58.716 21.9921V22.0601C58.716 26.153 55.6516 28.2845 51.1062 28.2845C47.9489 28.3167 44.8615 27.3561 42.2812 25.5389Z" fill="white"/>
<path d="M58.7373 9.2692H64.8873L67.2281 18.6196L69.9711 9.19482H75.1593L77.9257 18.6876L79.6686 11.8873C79.8436 11.1495 80.2606 10.4913 80.8532 10.0173C81.4458 9.54334 82.1801 9.28076 82.9393 9.27133H86.3846L80.8666 28.0168H75.4572L72.5482 18.3497L69.5689 28.0147H66.1875C65.6007 28.0069 65.0323 27.8092 64.5676 27.4513C64.1029 27.0934 63.767 26.5946 63.6105 26.0298L58.7373 9.2692Z" fill="white"/>
<path d="M85.6016 22.5468V22.4767C85.6016 18.626 88.5276 16.6306 92.9028 16.6306C94.4214 16.6329 95.9299 16.8768 97.3717 17.3531V17.0428C97.3717 15.1175 96.1651 14.0167 93.6519 14.0167C92.4149 14.0092 91.1836 14.1846 89.9981 14.5374C89.8051 14.5969 89.6023 14.6176 89.4013 14.5984C89.2003 14.5791 89.0051 14.5202 88.827 14.4252C88.6489 14.3301 88.4914 14.2008 88.3637 14.0446C88.236 13.8884 88.1405 13.7084 88.0828 13.5152L87.1869 10.4402C89.2873 9.57952 91.5281 8.99512 94.7308 8.99512C98.0697 8.99512 100.345 9.78565 101.823 11.2647C103.234 12.6418 103.83 14.5671 103.83 17.181V27.8766H99.2741C98.7628 27.8766 98.2724 27.6737 97.9108 27.3127C97.5493 26.9516 97.3461 26.4619 97.3461 25.9512C96.0693 27.3602 94.3137 28.2888 91.8686 28.2888C88.3212 28.2888 85.6016 26.2594 85.6016 22.5468ZM97.4461 21.1422V20.5046C96.6338 20.1819 95.7668 20.0181 94.8925 20.0222C92.9964 20.0222 91.8941 20.7256 91.8941 22.1006V22.1686C91.8941 23.4436 92.8603 24.198 94.203 24.198C96.1055 24.1959 97.4461 22.9931 97.4461 21.1422Z" fill="white"/>
<path d="M112.083 27.8765V17.7993C112.083 15.7699 113.253 14.6691 114.837 14.6691C116.388 14.6691 117.454 15.7699 117.454 17.7993V25.5665C117.454 26.1792 117.698 26.7667 118.132 27.1999C118.565 27.6331 119.154 27.8765 119.767 27.8765H123.998V15.7019C123.998 11.4708 121.623 8.85693 117.661 8.85693C115.009 8.85693 113.287 10.3445 112.083 11.8831V10.7844C112.083 10.3825 111.923 9.99714 111.639 9.71299C111.354 9.42884 110.968 9.2692 110.566 9.2692H105.533V27.8765H112.083Z" fill="white"/>
</g>
<defs>
<clipPath id="clip0_930_3573">
<rect width="124" height="37" fill="white" transform="translate(0 0.0739746)"/>
</clipPath>
</defs>
</svg>
