<svg width="33" height="33" viewBox="0 0 33 33" fill="none" xmlns="http://www.w3.org/2000/svg">
<path d="M16.6667 1.57397C12.6884 1.57397 8.87313 3.15433 6.06009 5.96737C3.24704 8.78042 1.66669 12.5957 1.66669 16.574C1.66669 20.5522 3.24704 24.3675 6.06009 27.1806C8.87313 29.9936 12.6884 31.574 16.6667 31.574C20.6449 31.574 24.4602 29.9936 27.2733 27.1806C30.0863 24.3675 31.6667 20.5522 31.6667 16.574C31.6667 12.5957 30.0863 8.78042 27.2733 5.96737C24.4602 3.15433 20.6449 1.57397 16.6667 1.57397V1.57397ZM23.5461 23.2077C23.4821 23.3127 23.398 23.4039 23.2987 23.4763C23.1993 23.5487 23.0867 23.6007 22.9672 23.6295C22.8477 23.6582 22.7237 23.6631 22.6023 23.6438C22.4809 23.6245 22.3645 23.5815 22.2598 23.5171C18.7367 21.3665 14.3042 20.879 9.08231 22.0733C8.84038 22.1285 8.58644 22.0854 8.37634 21.9533C8.16624 21.8213 8.0172 21.6112 7.962 21.3693C7.9068 21.1274 7.94997 20.8734 8.08201 20.6633C8.21404 20.4532 8.42413 20.3042 8.66606 20.249C14.3811 18.944 19.2823 19.5046 23.2348 21.9215C23.4463 22.0511 23.5978 22.2592 23.6561 22.5003C23.7145 22.7414 23.6749 22.9958 23.5461 23.2077ZM25.3817 19.124C25.2192 19.3882 24.9585 19.5771 24.6569 19.6492C24.3552 19.7213 24.0373 19.6706 23.7729 19.5083C19.7417 17.0315 13.5954 16.3134 8.82544 17.7609C8.5351 17.8298 8.22938 17.7855 7.97064 17.6368C7.7119 17.4881 7.51962 17.2463 7.43304 16.9607C7.34646 16.6751 7.37209 16.3673 7.5047 16.1C7.63731 15.8326 7.86692 15.626 8.14669 15.5221C13.5936 13.8702 20.3661 14.6708 24.9954 17.5152C25.26 17.6774 25.4493 17.9379 25.5217 18.2396C25.5941 18.5413 25.5438 18.8594 25.3817 19.124ZM25.5392 14.8715C20.7054 11.999 12.7292 11.7346 8.11294 13.1352C7.75688 13.2431 7.37255 13.2052 7.04448 13.0297C6.7164 12.8543 6.47147 12.5557 6.36356 12.1996C6.25565 11.8435 6.2936 11.4592 6.46907 11.1311C6.64453 10.8031 6.94313 10.5581 7.29919 10.4502C12.5961 8.84335 21.4048 9.15272 26.9717 12.4565C27.2919 12.6464 27.5236 12.9558 27.6157 13.3166C27.7079 13.6774 27.6529 14.06 27.4629 14.3802C27.273 14.7005 26.9636 14.9321 26.6028 15.0243C26.242 15.1164 25.8594 15.0614 25.5392 14.8715Z" fill="white"/>
</svg>
