<svg width="33" height="33" viewBox="0 0 33 33" fill="none" xmlns="http://www.w3.org/2000/svg">
<g clip-path="url(#clip0_930_3632)">
<path d="M32.1907 7.15666C31.0773 7.65 29.8813 7.98333 28.624 8.134C29.9214 7.35772 30.8919 6.13595 31.3547 4.69666C30.1358 5.42065 28.8018 5.93026 27.4107 6.20333C26.4752 5.20448 25.2361 4.54243 23.8858 4.31996C22.5355 4.09749 21.1495 4.32705 19.943 4.973C18.7365 5.61895 17.7771 6.64514 17.2136 7.89227C16.6501 9.13939 16.5141 10.5377 16.8267 11.87C14.3569 11.746 11.9409 11.1041 9.73525 9.98587C7.52964 8.86768 5.5838 7.29821 4.02402 5.37933C3.49068 6.29933 3.18402 7.366 3.18402 8.502C3.18342 9.52466 3.43526 10.5317 3.91719 11.4336C4.39912 12.3356 5.09623 13.1047 5.94668 13.6727C4.96038 13.6413 3.99585 13.3748 3.13335 12.8953V12.9753C3.13325 14.4096 3.62939 15.7998 4.53759 16.91C5.44579 18.0201 6.71011 18.7819 8.11602 19.066C7.20106 19.3136 6.2418 19.3501 5.31068 19.1727C5.70735 20.4068 6.48001 21.486 7.52051 22.2592C8.561 23.0324 9.81724 23.4609 11.1133 23.4847C8.91313 25.2119 6.19587 26.1488 3.39868 26.1447C2.90319 26.1448 2.40812 26.1159 1.91602 26.058C4.75532 27.8836 8.06047 28.8524 11.436 28.8487C22.8627 28.8487 29.1094 19.3847 29.1094 11.1767C29.1094 10.91 29.1027 10.6407 29.0907 10.374C30.3057 9.49529 31.3546 8.40719 32.188 7.16066L32.1907 7.15666Z" fill="white"/>
</g>
<defs>
<clipPath id="clip0_930_3632">
<rect width="32" height="32" fill="white" transform="translate(0.666687 0.573975)"/>
</clipPath>
</defs>
</svg>
