<svg width="33" height="33" viewBox="0 0 33 33" fill="none" xmlns="http://www.w3.org/2000/svg">
<g clip-path="url(#clip0_930_3635)">
<path d="M16.7687 4.57202H16.9467C18.5907 4.57802 26.9207 4.63802 29.1667 5.24202C29.8457 5.42636 30.4644 5.78567 30.961 6.28404C31.4576 6.78241 31.8147 7.40239 31.9967 8.08202C32.1987 8.84202 32.3407 9.84802 32.4367 10.886L32.4567 11.094L32.5007 11.614L32.5167 11.822C32.6467 13.65 32.6627 15.362 32.6647 15.736V15.886C32.6627 16.274 32.6447 18.102 32.5007 20.006L32.4847 20.216L32.4667 20.424C32.3667 21.568 32.2187 22.704 31.9967 23.54C31.8153 24.2199 31.4584 24.8402 30.9617 25.3387C30.465 25.8371 29.8459 26.1962 29.1667 26.38C26.8467 27.004 18.0287 27.048 16.8067 27.05H16.5227C15.9047 27.05 13.3487 27.038 10.6687 26.946L10.3287 26.934L10.1547 26.926L9.81269 26.912L9.47069 26.898C7.25069 26.8 5.13669 26.642 4.16269 26.378C3.48367 26.1944 2.86482 25.8356 2.36814 25.3375C1.87145 24.8394 1.51438 24.2196 1.33269 23.54C1.11069 22.706 0.962687 21.568 0.862687 20.424L0.846687 20.214L0.830687 20.006C0.731982 18.6508 0.677287 17.2928 0.666687 15.934L0.666687 15.688C0.670687 15.258 0.686687 13.772 0.794687 12.132L0.808687 11.926L0.814687 11.822L0.830687 11.614L0.874687 11.094L0.894687 10.886C0.990687 9.84802 1.13269 8.84002 1.33469 8.08202C1.51607 7.40212 1.87301 6.78184 2.36971 6.28339C2.86642 5.78493 3.48543 5.42581 4.16469 5.24202C5.13869 4.98202 7.25269 4.82202 9.47269 4.72202L9.81269 4.70802L10.1567 4.69602L10.3287 4.69002L10.6707 4.67602C12.5741 4.61477 14.4783 4.58077 16.3827 4.57402H16.7687V4.57202ZM13.4667 10.992V20.628L21.7807 15.812L13.4667 10.992Z" fill="white"/>
</g>
<defs>
<clipPath id="clip0_930_3635">
<rect width="32" height="32" fill="white" transform="translate(0.666687 0.573975)"/>
</clipPath>
</defs>
</svg>
